<mxfile host="app.diagrams.net" modified="2024-04-14T19:18:12.767Z" agent="Mozilla/5.0 (Windows NT 10.0; Win64; x64) AppleWebKit/537.36 (KHTML, like Gecko) Chrome/123.0.0.0 Safari/537.36" etag="AkVBPo6xjjpI-FnNrcEc" version="24.2.2" type="device">
  <diagram name="Strona-1" id="d1FAFQ-EnbqF_mnkYt2u">
    <mxGraphModel dx="2261" dy="772" grid="1" gridSize="10" guides="1" tooltips="1" connect="1" arrows="1" fold="1" page="1" pageScale="1" pageWidth="827" pageHeight="1169" math="0" shadow="0">
      <root>
        <mxCell id="0" />
        <mxCell id="1" parent="0" />
        <mxCell id="r4uRNz52jbwxSOdr3Hly-1" style="edgeStyle=orthogonalEdgeStyle;rounded=0;orthogonalLoop=1;jettySize=auto;html=1;exitX=0.5;exitY=1;exitDx=0;exitDy=0;entryX=0.5;entryY=0;entryDx=0;entryDy=0;" edge="1" parent="1" source="r4uRNz52jbwxSOdr3Hly-4" target="r4uRNz52jbwxSOdr3Hly-12">
          <mxGeometry relative="1" as="geometry" />
        </mxCell>
        <mxCell id="r4uRNz52jbwxSOdr3Hly-2" style="edgeStyle=orthogonalEdgeStyle;rounded=0;orthogonalLoop=1;jettySize=auto;html=1;exitX=0;exitY=0.5;exitDx=0;exitDy=0;entryX=0.5;entryY=0;entryDx=0;entryDy=0;" edge="1" parent="1" source="r4uRNz52jbwxSOdr3Hly-4" target="r4uRNz52jbwxSOdr3Hly-6">
          <mxGeometry relative="1" as="geometry" />
        </mxCell>
        <mxCell id="r4uRNz52jbwxSOdr3Hly-3" style="edgeStyle=orthogonalEdgeStyle;rounded=0;orthogonalLoop=1;jettySize=auto;html=1;exitX=1;exitY=0.5;exitDx=0;exitDy=0;entryX=0.5;entryY=0;entryDx=0;entryDy=0;" edge="1" parent="1" source="r4uRNz52jbwxSOdr3Hly-4" target="r4uRNz52jbwxSOdr3Hly-10">
          <mxGeometry relative="1" as="geometry" />
        </mxCell>
        <mxCell id="r4uRNz52jbwxSOdr3Hly-4" value="Wybierz cel wizyty" style="rhombus;whiteSpace=wrap;html=1;shadow=0;fontFamily=Helvetica;fontSize=12;align=center;strokeWidth=1;spacing=6;spacingTop=-4;" vertex="1" parent="1">
          <mxGeometry x="195" y="150" width="100" height="80" as="geometry" />
        </mxCell>
        <mxCell id="r4uRNz52jbwxSOdr3Hly-5" style="edgeStyle=orthogonalEdgeStyle;rounded=0;orthogonalLoop=1;jettySize=auto;html=1;exitX=0.5;exitY=1;exitDx=0;exitDy=0;" edge="1" parent="1" source="r4uRNz52jbwxSOdr3Hly-6" target="r4uRNz52jbwxSOdr3Hly-22">
          <mxGeometry relative="1" as="geometry" />
        </mxCell>
        <mxCell id="r4uRNz52jbwxSOdr3Hly-6" value="Realizacja recepty" style="rounded=1;whiteSpace=wrap;html=1;fontSize=12;glass=0;strokeWidth=1;shadow=0;" vertex="1" parent="1">
          <mxGeometry x="20" y="290" width="120" height="40" as="geometry" />
        </mxCell>
        <mxCell id="r4uRNz52jbwxSOdr3Hly-7" style="edgeStyle=orthogonalEdgeStyle;rounded=0;orthogonalLoop=1;jettySize=auto;html=1;exitX=0.5;exitY=1;exitDx=0;exitDy=0;entryX=0.5;entryY=0;entryDx=0;entryDy=0;" edge="1" parent="1" target="r4uRNz52jbwxSOdr3Hly-4">
          <mxGeometry relative="1" as="geometry">
            <mxPoint x="245" y="110" as="sourcePoint" />
          </mxGeometry>
        </mxCell>
        <mxCell id="r4uRNz52jbwxSOdr3Hly-8" style="edgeStyle=orthogonalEdgeStyle;rounded=0;orthogonalLoop=1;jettySize=auto;html=1;exitX=0.5;exitY=1;exitDx=0;exitDy=0;entryX=0.5;entryY=0;entryDx=0;entryDy=0;" edge="1" parent="1" source="r4uRNz52jbwxSOdr3Hly-10" target="r4uRNz52jbwxSOdr3Hly-32">
          <mxGeometry relative="1" as="geometry" />
        </mxCell>
        <mxCell id="r4uRNz52jbwxSOdr3Hly-9" style="edgeStyle=orthogonalEdgeStyle;rounded=0;orthogonalLoop=1;jettySize=auto;html=1;exitX=0.25;exitY=1;exitDx=0;exitDy=0;entryX=0.5;entryY=0;entryDx=0;entryDy=0;" edge="1" parent="1" source="r4uRNz52jbwxSOdr3Hly-10" target="r4uRNz52jbwxSOdr3Hly-46">
          <mxGeometry relative="1" as="geometry">
            <mxPoint x="383.8333333333335" y="530" as="targetPoint" />
          </mxGeometry>
        </mxCell>
        <mxCell id="r4uRNz52jbwxSOdr3Hly-10" value="Zabieg" style="rounded=1;whiteSpace=wrap;html=1;fontSize=12;glass=0;strokeWidth=1;shadow=0;" vertex="1" parent="1">
          <mxGeometry x="353.5" y="290" width="120" height="40" as="geometry" />
        </mxCell>
        <mxCell id="r4uRNz52jbwxSOdr3Hly-11" style="edgeStyle=orthogonalEdgeStyle;rounded=0;orthogonalLoop=1;jettySize=auto;html=1;exitX=0.5;exitY=1;exitDx=0;exitDy=0;entryX=0.5;entryY=0;entryDx=0;entryDy=0;" edge="1" parent="1" source="r4uRNz52jbwxSOdr3Hly-12" target="r4uRNz52jbwxSOdr3Hly-26">
          <mxGeometry relative="1" as="geometry" />
        </mxCell>
        <mxCell id="r4uRNz52jbwxSOdr3Hly-12" value="Konsultacja z lekarzem" style="rounded=1;whiteSpace=wrap;html=1;fontSize=12;glass=0;strokeWidth=1;shadow=0;" vertex="1" parent="1">
          <mxGeometry x="185" y="290" width="120" height="40" as="geometry" />
        </mxCell>
        <mxCell id="r4uRNz52jbwxSOdr3Hly-13" value="Pacjent" style="shape=umlActor;verticalLabelPosition=bottom;verticalAlign=top;html=1;outlineConnect=0;" vertex="1" parent="1">
          <mxGeometry x="230" y="20" width="30" height="60" as="geometry" />
        </mxCell>
        <mxCell id="r4uRNz52jbwxSOdr3Hly-14" style="edgeStyle=orthogonalEdgeStyle;rounded=0;orthogonalLoop=1;jettySize=auto;html=1;exitX=0.5;exitY=0.5;exitDx=0;exitDy=0;exitPerimeter=0;entryX=0;entryY=0.5;entryDx=0;entryDy=0;" edge="1" parent="1" source="r4uRNz52jbwxSOdr3Hly-15" target="r4uRNz52jbwxSOdr3Hly-6">
          <mxGeometry relative="1" as="geometry" />
        </mxCell>
        <mxCell id="r4uRNz52jbwxSOdr3Hly-15" value="Farmaceuta" style="shape=umlActor;verticalLabelPosition=bottom;verticalAlign=top;html=1;outlineConnect=0;" vertex="1" parent="1">
          <mxGeometry x="-140" y="280" width="30" height="60" as="geometry" />
        </mxCell>
        <mxCell id="r4uRNz52jbwxSOdr3Hly-16" style="edgeStyle=orthogonalEdgeStyle;rounded=0;orthogonalLoop=1;jettySize=auto;html=1;exitX=0.5;exitY=0.5;exitDx=0;exitDy=0;exitPerimeter=0;entryX=1;entryY=0.5;entryDx=0;entryDy=0;" edge="1" parent="1" source="r4uRNz52jbwxSOdr3Hly-17" target="r4uRNz52jbwxSOdr3Hly-10">
          <mxGeometry relative="1" as="geometry">
            <Array as="points">
              <mxPoint x="540" y="310" />
              <mxPoint x="540" y="310" />
            </Array>
          </mxGeometry>
        </mxCell>
        <mxCell id="r4uRNz52jbwxSOdr3Hly-17" value="Lekarz" style="shape=umlActor;verticalLabelPosition=bottom;verticalAlign=top;html=1;outlineConnect=0;" vertex="1" parent="1">
          <mxGeometry x="590" y="280" width="30" height="60" as="geometry" />
        </mxCell>
        <mxCell id="r4uRNz52jbwxSOdr3Hly-18" style="edgeStyle=orthogonalEdgeStyle;rounded=0;orthogonalLoop=1;jettySize=auto;html=1;exitX=0.5;exitY=0.5;exitDx=0;exitDy=0;exitPerimeter=0;entryX=0;entryY=0.5;entryDx=0;entryDy=0;" edge="1" parent="1" source="r4uRNz52jbwxSOdr3Hly-20" target="r4uRNz52jbwxSOdr3Hly-22">
          <mxGeometry relative="1" as="geometry" />
        </mxCell>
        <mxCell id="r4uRNz52jbwxSOdr3Hly-19" style="edgeStyle=orthogonalEdgeStyle;rounded=0;orthogonalLoop=1;jettySize=auto;html=1;exitX=0.5;exitY=0.5;exitDx=0;exitDy=0;exitPerimeter=0;entryX=0;entryY=0.5;entryDx=0;entryDy=0;" edge="1" parent="1" source="r4uRNz52jbwxSOdr3Hly-20" target="r4uRNz52jbwxSOdr3Hly-34">
          <mxGeometry relative="1" as="geometry">
            <mxPoint x="80" y="610" as="targetPoint" />
            <Array as="points">
              <mxPoint x="-35" y="420" />
              <mxPoint x="-35" y="550" />
            </Array>
          </mxGeometry>
        </mxCell>
        <mxCell id="r4uRNz52jbwxSOdr3Hly-20" value="System" style="shape=umlActor;verticalLabelPosition=bottom;verticalAlign=top;html=1;outlineConnect=0;" vertex="1" parent="1">
          <mxGeometry x="-140" y="390" width="30" height="60" as="geometry" />
        </mxCell>
        <mxCell id="r4uRNz52jbwxSOdr3Hly-21" style="edgeStyle=orthogonalEdgeStyle;rounded=0;orthogonalLoop=1;jettySize=auto;html=1;exitX=0.5;exitY=1;exitDx=0;exitDy=0;entryX=0.5;entryY=0;entryDx=0;entryDy=0;" edge="1" parent="1" source="r4uRNz52jbwxSOdr3Hly-22" target="r4uRNz52jbwxSOdr3Hly-34">
          <mxGeometry relative="1" as="geometry" />
        </mxCell>
        <mxCell id="r4uRNz52jbwxSOdr3Hly-22" value="Weryfikacja pozycji recepty" style="rounded=1;whiteSpace=wrap;html=1;fontSize=12;glass=0;strokeWidth=1;shadow=0;" vertex="1" parent="1">
          <mxGeometry x="20" y="400" width="120" height="40" as="geometry" />
        </mxCell>
        <mxCell id="r4uRNz52jbwxSOdr3Hly-23" style="edgeStyle=orthogonalEdgeStyle;rounded=0;orthogonalLoop=1;jettySize=auto;html=1;entryX=0.75;entryY=0;entryDx=0;entryDy=0;" edge="1" parent="1" target="r4uRNz52jbwxSOdr3Hly-12">
          <mxGeometry relative="1" as="geometry">
            <mxPoint x="530" y="310" as="sourcePoint" />
            <mxPoint x="250" y="250" as="targetPoint" />
            <Array as="points">
              <mxPoint x="530" y="250" />
              <mxPoint x="275" y="250" />
            </Array>
          </mxGeometry>
        </mxCell>
        <mxCell id="r4uRNz52jbwxSOdr3Hly-24" style="edgeStyle=orthogonalEdgeStyle;rounded=0;orthogonalLoop=1;jettySize=auto;html=1;exitX=1;exitY=0.5;exitDx=0;exitDy=0;entryX=0;entryY=0.5;entryDx=0;entryDy=0;" edge="1" parent="1" source="r4uRNz52jbwxSOdr3Hly-26" target="r4uRNz52jbwxSOdr3Hly-10">
          <mxGeometry relative="1" as="geometry" />
        </mxCell>
        <mxCell id="r4uRNz52jbwxSOdr3Hly-25" style="edgeStyle=orthogonalEdgeStyle;rounded=0;orthogonalLoop=1;jettySize=auto;html=1;exitX=0.5;exitY=1;exitDx=0;exitDy=0;entryX=0.5;entryY=0;entryDx=0;entryDy=0;" edge="1" parent="1" source="r4uRNz52jbwxSOdr3Hly-26" target="r4uRNz52jbwxSOdr3Hly-49">
          <mxGeometry relative="1" as="geometry" />
        </mxCell>
        <mxCell id="r4uRNz52jbwxSOdr3Hly-26" value="Zabieg?" style="rhombus;whiteSpace=wrap;html=1;" vertex="1" parent="1">
          <mxGeometry x="205" y="380" width="80" height="80" as="geometry" />
        </mxCell>
        <mxCell id="r4uRNz52jbwxSOdr3Hly-27" value="Tak" style="text;html=1;align=center;verticalAlign=middle;whiteSpace=wrap;rounded=0;" vertex="1" parent="1">
          <mxGeometry x="270" y="390" width="60" height="30" as="geometry" />
        </mxCell>
        <mxCell id="r4uRNz52jbwxSOdr3Hly-28" value="Nie" style="text;html=1;align=center;verticalAlign=middle;whiteSpace=wrap;rounded=0;" vertex="1" parent="1">
          <mxGeometry x="240" y="460" width="60" height="30" as="geometry" />
        </mxCell>
        <mxCell id="r4uRNz52jbwxSOdr3Hly-29" style="edgeStyle=orthogonalEdgeStyle;rounded=0;orthogonalLoop=1;jettySize=auto;html=1;exitX=0.5;exitY=0.5;exitDx=0;exitDy=0;exitPerimeter=0;entryX=1;entryY=0.5;entryDx=0;entryDy=0;" edge="1" parent="1" source="r4uRNz52jbwxSOdr3Hly-31" target="r4uRNz52jbwxSOdr3Hly-32">
          <mxGeometry relative="1" as="geometry" />
        </mxCell>
        <mxCell id="r4uRNz52jbwxSOdr3Hly-30" style="edgeStyle=orthogonalEdgeStyle;rounded=0;orthogonalLoop=1;jettySize=auto;html=1;exitX=0.5;exitY=0.5;exitDx=0;exitDy=0;exitPerimeter=0;entryX=1;entryY=0.5;entryDx=0;entryDy=0;" edge="1" parent="1" source="r4uRNz52jbwxSOdr3Hly-31" target="r4uRNz52jbwxSOdr3Hly-46">
          <mxGeometry relative="1" as="geometry">
            <Array as="points">
              <mxPoint x="640" y="420" />
              <mxPoint x="640" y="680" />
            </Array>
          </mxGeometry>
        </mxCell>
        <mxCell id="r4uRNz52jbwxSOdr3Hly-31" value="System" style="shape=umlActor;verticalLabelPosition=bottom;verticalAlign=top;html=1;outlineConnect=0;" vertex="1" parent="1">
          <mxGeometry x="590" y="390" width="30" height="60" as="geometry" />
        </mxCell>
        <mxCell id="r4uRNz52jbwxSOdr3Hly-32" value="Rejestracja zabiegu" style="rounded=1;whiteSpace=wrap;html=1;fontSize=12;glass=0;strokeWidth=1;shadow=0;" vertex="1" parent="1">
          <mxGeometry x="354" y="400" width="120" height="40" as="geometry" />
        </mxCell>
        <mxCell id="r4uRNz52jbwxSOdr3Hly-33" style="edgeStyle=orthogonalEdgeStyle;rounded=0;orthogonalLoop=1;jettySize=auto;html=1;exitX=0.5;exitY=1;exitDx=0;exitDy=0;entryX=0.5;entryY=0;entryDx=0;entryDy=0;" edge="1" parent="1" source="r4uRNz52jbwxSOdr3Hly-34" target="r4uRNz52jbwxSOdr3Hly-38">
          <mxGeometry relative="1" as="geometry" />
        </mxCell>
        <mxCell id="r4uRNz52jbwxSOdr3Hly-34" value="Sprawdzenie dostępności lekarstw" style="rounded=1;whiteSpace=wrap;html=1;fontSize=12;glass=0;strokeWidth=1;shadow=0;" vertex="1" parent="1">
          <mxGeometry x="20" y="530" width="120" height="40" as="geometry" />
        </mxCell>
        <mxCell id="r4uRNz52jbwxSOdr3Hly-35" style="edgeStyle=orthogonalEdgeStyle;rounded=0;orthogonalLoop=1;jettySize=auto;html=1;exitX=0;exitY=0.5;exitDx=0;exitDy=0;entryX=1;entryY=0.5;entryDx=0;entryDy=0;" edge="1" parent="1" source="r4uRNz52jbwxSOdr3Hly-38" target="r4uRNz52jbwxSOdr3Hly-42">
          <mxGeometry relative="1" as="geometry" />
        </mxCell>
        <mxCell id="r4uRNz52jbwxSOdr3Hly-36" style="edgeStyle=orthogonalEdgeStyle;rounded=0;orthogonalLoop=1;jettySize=auto;html=1;exitX=1;exitY=0.5;exitDx=0;exitDy=0;entryX=0;entryY=0.5;entryDx=0;entryDy=0;" edge="1" parent="1" source="r4uRNz52jbwxSOdr3Hly-38" target="r4uRNz52jbwxSOdr3Hly-44">
          <mxGeometry relative="1" as="geometry" />
        </mxCell>
        <mxCell id="r4uRNz52jbwxSOdr3Hly-37" style="edgeStyle=orthogonalEdgeStyle;rounded=0;orthogonalLoop=1;jettySize=auto;html=1;exitX=0.5;exitY=1;exitDx=0;exitDy=0;entryX=0.5;entryY=0;entryDx=0;entryDy=0;" edge="1" parent="1" source="r4uRNz52jbwxSOdr3Hly-38" target="r4uRNz52jbwxSOdr3Hly-55">
          <mxGeometry relative="1" as="geometry" />
        </mxCell>
        <mxCell id="r4uRNz52jbwxSOdr3Hly-38" value="Dostępne?" style="rhombus;whiteSpace=wrap;html=1;" vertex="1" parent="1">
          <mxGeometry x="40" y="640" width="80" height="80" as="geometry" />
        </mxCell>
        <mxCell id="r4uRNz52jbwxSOdr3Hly-39" value="Tak" style="text;html=1;align=center;verticalAlign=middle;whiteSpace=wrap;rounded=0;" vertex="1" parent="1">
          <mxGeometry x="120" y="650" width="60" height="30" as="geometry" />
        </mxCell>
        <mxCell id="r4uRNz52jbwxSOdr3Hly-40" value="Nie" style="text;html=1;align=center;verticalAlign=middle;whiteSpace=wrap;rounded=0;" vertex="1" parent="1">
          <mxGeometry x="-20" y="650" width="60" height="30" as="geometry" />
        </mxCell>
        <mxCell id="r4uRNz52jbwxSOdr3Hly-41" style="edgeStyle=orthogonalEdgeStyle;rounded=0;orthogonalLoop=1;jettySize=auto;html=1;exitX=0.25;exitY=0;exitDx=0;exitDy=0;" edge="1" parent="1" source="r4uRNz52jbwxSOdr3Hly-42">
          <mxGeometry relative="1" as="geometry">
            <mxPoint x="80" y="480" as="targetPoint" />
            <Array as="points">
              <mxPoint x="-110" y="480" />
            </Array>
          </mxGeometry>
        </mxCell>
        <mxCell id="r4uRNz52jbwxSOdr3Hly-42" value="Odmowa realizacji recepty" style="rounded=1;whiteSpace=wrap;html=1;fontSize=12;glass=0;strokeWidth=1;shadow=0;" vertex="1" parent="1">
          <mxGeometry x="-140" y="660" width="120" height="40" as="geometry" />
        </mxCell>
        <mxCell id="r4uRNz52jbwxSOdr3Hly-43" style="edgeStyle=orthogonalEdgeStyle;rounded=0;orthogonalLoop=1;jettySize=auto;html=1;exitX=1;exitY=0.5;exitDx=0;exitDy=0;entryX=0;entryY=0.5;entryDx=0;entryDy=0;" edge="1" parent="1" source="r4uRNz52jbwxSOdr3Hly-44" target="r4uRNz52jbwxSOdr3Hly-46">
          <mxGeometry relative="1" as="geometry" />
        </mxCell>
        <mxCell id="r4uRNz52jbwxSOdr3Hly-44" value="Sprzedaż lekarstw" style="rounded=1;whiteSpace=wrap;html=1;fontSize=12;glass=0;strokeWidth=1;shadow=0;" vertex="1" parent="1">
          <mxGeometry x="180" y="660" width="120" height="40" as="geometry" />
        </mxCell>
        <mxCell id="r4uRNz52jbwxSOdr3Hly-45" style="edgeStyle=orthogonalEdgeStyle;rounded=0;orthogonalLoop=1;jettySize=auto;html=1;exitX=0.5;exitY=1;exitDx=0;exitDy=0;entryX=0.5;entryY=0;entryDx=0;entryDy=0;" edge="1" parent="1" source="r4uRNz52jbwxSOdr3Hly-46" target="r4uRNz52jbwxSOdr3Hly-59">
          <mxGeometry relative="1" as="geometry" />
        </mxCell>
        <mxCell id="r4uRNz52jbwxSOdr3Hly-46" value="Płatność" style="rounded=1;whiteSpace=wrap;html=1;fontSize=12;glass=0;strokeWidth=1;shadow=0;" vertex="1" parent="1">
          <mxGeometry x="470" y="660" width="120" height="40" as="geometry" />
        </mxCell>
        <mxCell id="r4uRNz52jbwxSOdr3Hly-47" style="edgeStyle=orthogonalEdgeStyle;rounded=0;orthogonalLoop=1;jettySize=auto;html=1;exitX=0.5;exitY=1;exitDx=0;exitDy=0;entryX=0.25;entryY=0;entryDx=0;entryDy=0;" edge="1" parent="1" source="r4uRNz52jbwxSOdr3Hly-49" target="r4uRNz52jbwxSOdr3Hly-46">
          <mxGeometry relative="1" as="geometry" />
        </mxCell>
        <mxCell id="r4uRNz52jbwxSOdr3Hly-48" style="edgeStyle=orthogonalEdgeStyle;rounded=0;orthogonalLoop=1;jettySize=auto;html=1;exitX=0;exitY=0.5;exitDx=0;exitDy=0;entryX=1;entryY=0.5;entryDx=0;entryDy=0;" edge="1" parent="1" source="r4uRNz52jbwxSOdr3Hly-49" target="r4uRNz52jbwxSOdr3Hly-52">
          <mxGeometry relative="1" as="geometry" />
        </mxCell>
        <mxCell id="r4uRNz52jbwxSOdr3Hly-49" value="Potrzebna recepta na lekarstwa?" style="rhombus;whiteSpace=wrap;html=1;" vertex="1" parent="1">
          <mxGeometry x="305" y="510" width="80" height="80" as="geometry" />
        </mxCell>
        <mxCell id="r4uRNz52jbwxSOdr3Hly-50" value="Nie" style="text;html=1;align=center;verticalAlign=middle;whiteSpace=wrap;rounded=0;" vertex="1" parent="1">
          <mxGeometry x="330" y="585" width="60" height="30" as="geometry" />
        </mxCell>
        <mxCell id="r4uRNz52jbwxSOdr3Hly-51" style="edgeStyle=orthogonalEdgeStyle;rounded=0;orthogonalLoop=1;jettySize=auto;html=1;exitX=1;exitY=1;exitDx=0;exitDy=0;entryX=0;entryY=0;entryDx=0;entryDy=0;" edge="1" parent="1" source="r4uRNz52jbwxSOdr3Hly-52" target="r4uRNz52jbwxSOdr3Hly-46">
          <mxGeometry relative="1" as="geometry" />
        </mxCell>
        <mxCell id="r4uRNz52jbwxSOdr3Hly-52" value="Wypisanie recepty" style="rounded=1;whiteSpace=wrap;html=1;fontSize=12;glass=0;strokeWidth=1;shadow=0;" vertex="1" parent="1">
          <mxGeometry x="165" y="530" width="120" height="40" as="geometry" />
        </mxCell>
        <mxCell id="r4uRNz52jbwxSOdr3Hly-53" value="Tak" style="text;html=1;align=center;verticalAlign=middle;whiteSpace=wrap;rounded=0;" vertex="1" parent="1">
          <mxGeometry x="270" y="510" width="60" height="30" as="geometry" />
        </mxCell>
        <mxCell id="r4uRNz52jbwxSOdr3Hly-54" value="Brak wszystkich pozycji recepty" style="text;html=1;align=center;verticalAlign=middle;whiteSpace=wrap;rounded=0;" vertex="1" parent="1">
          <mxGeometry x="20" y="730" width="60" height="30" as="geometry" />
        </mxCell>
        <mxCell id="r4uRNz52jbwxSOdr3Hly-55" value="Warrning: Drastyczne braki w magazynie" style="rounded=1;whiteSpace=wrap;html=1;fontSize=12;glass=0;strokeWidth=1;shadow=0;" vertex="1" parent="1">
          <mxGeometry x="20" y="780" width="120" height="40" as="geometry" />
        </mxCell>
        <mxCell id="r4uRNz52jbwxSOdr3Hly-56" style="edgeStyle=orthogonalEdgeStyle;rounded=0;orthogonalLoop=1;jettySize=auto;html=1;exitX=0.5;exitY=0.5;exitDx=0;exitDy=0;exitPerimeter=0;entryX=0;entryY=0.5;entryDx=0;entryDy=0;" edge="1" parent="1" source="r4uRNz52jbwxSOdr3Hly-57" target="r4uRNz52jbwxSOdr3Hly-55">
          <mxGeometry relative="1" as="geometry" />
        </mxCell>
        <mxCell id="r4uRNz52jbwxSOdr3Hly-57" value="System" style="shape=umlActor;verticalLabelPosition=bottom;verticalAlign=top;html=1;outlineConnect=0;" vertex="1" parent="1">
          <mxGeometry x="-140" y="770" width="30" height="60" as="geometry" />
        </mxCell>
        <mxCell id="r4uRNz52jbwxSOdr3Hly-58" style="edgeStyle=orthogonalEdgeStyle;rounded=0;orthogonalLoop=1;jettySize=auto;html=1;exitX=0.5;exitY=1;exitDx=0;exitDy=0;entryX=0.5;entryY=0;entryDx=0;entryDy=0;" edge="1" parent="1" source="r4uRNz52jbwxSOdr3Hly-59" target="r4uRNz52jbwxSOdr3Hly-61">
          <mxGeometry relative="1" as="geometry" />
        </mxCell>
        <mxCell id="r4uRNz52jbwxSOdr3Hly-59" value="Zapewnienie bezpeicznej płatności" style="rounded=1;whiteSpace=wrap;html=1;fontSize=12;glass=0;strokeWidth=1;shadow=0;" vertex="1" parent="1">
          <mxGeometry x="185" y="780" width="120" height="40" as="geometry" />
        </mxCell>
        <mxCell id="r4uRNz52jbwxSOdr3Hly-60" style="edgeStyle=orthogonalEdgeStyle;rounded=0;orthogonalLoop=1;jettySize=auto;html=1;exitX=0.5;exitY=1;exitDx=0;exitDy=0;entryX=0.5;entryY=0;entryDx=0;entryDy=0;" edge="1" parent="1" source="r4uRNz52jbwxSOdr3Hly-61" target="r4uRNz52jbwxSOdr3Hly-65">
          <mxGeometry relative="1" as="geometry" />
        </mxCell>
        <mxCell id="r4uRNz52jbwxSOdr3Hly-61" value="Dokonanie płatnośći" style="rounded=1;whiteSpace=wrap;html=1;fontSize=12;glass=0;strokeWidth=1;shadow=0;" vertex="1" parent="1">
          <mxGeometry x="185" y="860" width="120" height="40" as="geometry" />
        </mxCell>
        <mxCell id="r4uRNz52jbwxSOdr3Hly-62" style="edgeStyle=orthogonalEdgeStyle;rounded=0;orthogonalLoop=1;jettySize=auto;html=1;exitX=1;exitY=0.5;exitDx=0;exitDy=0;" edge="1" parent="1" source="r4uRNz52jbwxSOdr3Hly-65">
          <mxGeometry relative="1" as="geometry">
            <mxPoint x="370" y="740" as="targetPoint" />
          </mxGeometry>
        </mxCell>
        <mxCell id="r4uRNz52jbwxSOdr3Hly-63" style="edgeStyle=orthogonalEdgeStyle;rounded=0;orthogonalLoop=1;jettySize=auto;html=1;exitX=0.5;exitY=1;exitDx=0;exitDy=0;entryX=0.5;entryY=0;entryDx=0;entryDy=0;" edge="1" parent="1" source="r4uRNz52jbwxSOdr3Hly-65">
          <mxGeometry relative="1" as="geometry">
            <mxPoint x="245" y="1050" as="targetPoint" />
          </mxGeometry>
        </mxCell>
        <mxCell id="r4uRNz52jbwxSOdr3Hly-64" style="edgeStyle=orthogonalEdgeStyle;rounded=0;orthogonalLoop=1;jettySize=auto;html=1;exitX=0;exitY=0.5;exitDx=0;exitDy=0;entryX=1;entryY=0.5;entryDx=0;entryDy=0;" edge="1" parent="1" source="r4uRNz52jbwxSOdr3Hly-65" target="r4uRNz52jbwxSOdr3Hly-68">
          <mxGeometry relative="1" as="geometry" />
        </mxCell>
        <mxCell id="r4uRNz52jbwxSOdr3Hly-65" value="Odrzucona?" style="rhombus;whiteSpace=wrap;html=1;" vertex="1" parent="1">
          <mxGeometry x="205" y="940" width="80" height="80" as="geometry" />
        </mxCell>
        <mxCell id="r4uRNz52jbwxSOdr3Hly-66" value="Tak" style="text;html=1;align=center;verticalAlign=middle;whiteSpace=wrap;rounded=0;" vertex="1" parent="1">
          <mxGeometry x="295" y="950" width="60" height="30" as="geometry" />
        </mxCell>
        <mxCell id="r4uRNz52jbwxSOdr3Hly-67" value="Nie" style="text;html=1;align=center;verticalAlign=middle;whiteSpace=wrap;rounded=0;" vertex="1" parent="1">
          <mxGeometry x="140" y="950" width="60" height="30" as="geometry" />
        </mxCell>
        <mxCell id="r4uRNz52jbwxSOdr3Hly-68" value="Dokonana płatność" style="rounded=1;whiteSpace=wrap;html=1;fontSize=12;glass=0;strokeWidth=1;shadow=0;" vertex="1" parent="1">
          <mxGeometry x="20" y="960" width="120" height="40" as="geometry" />
        </mxCell>
        <mxCell id="r4uRNz52jbwxSOdr3Hly-69" style="edgeStyle=orthogonalEdgeStyle;rounded=0;orthogonalLoop=1;jettySize=auto;html=1;exitX=0.5;exitY=1;exitDx=0;exitDy=0;entryX=0.5;entryY=0;entryDx=0;entryDy=0;" edge="1" parent="1" source="r4uRNz52jbwxSOdr3Hly-70" target="r4uRNz52jbwxSOdr3Hly-75">
          <mxGeometry relative="1" as="geometry" />
        </mxCell>
        <mxCell id="r4uRNz52jbwxSOdr3Hly-70" value="Zablokowanie transakcji" style="rounded=1;whiteSpace=wrap;html=1;fontSize=12;glass=0;strokeWidth=1;shadow=0;" vertex="1" parent="1">
          <mxGeometry x="185" y="1050" width="120" height="40" as="geometry" />
        </mxCell>
        <mxCell id="r4uRNz52jbwxSOdr3Hly-71" value="Odrzucona trzeci raz" style="text;html=1;align=center;verticalAlign=middle;whiteSpace=wrap;rounded=0;" vertex="1" parent="1">
          <mxGeometry x="260" y="1010" width="60" height="30" as="geometry" />
        </mxCell>
        <mxCell id="r4uRNz52jbwxSOdr3Hly-72" style="edgeStyle=orthogonalEdgeStyle;rounded=0;orthogonalLoop=1;jettySize=auto;html=1;exitX=0.5;exitY=0.5;exitDx=0;exitDy=0;exitPerimeter=0;entryX=1;entryY=0.5;entryDx=0;entryDy=0;" edge="1" parent="1" source="r4uRNz52jbwxSOdr3Hly-74" target="r4uRNz52jbwxSOdr3Hly-70">
          <mxGeometry relative="1" as="geometry" />
        </mxCell>
        <mxCell id="r4uRNz52jbwxSOdr3Hly-73" style="edgeStyle=orthogonalEdgeStyle;rounded=0;orthogonalLoop=1;jettySize=auto;html=1;exitX=0.5;exitY=0;exitDx=0;exitDy=0;exitPerimeter=0;entryX=1;entryY=0.5;entryDx=0;entryDy=0;" edge="1" parent="1" source="r4uRNz52jbwxSOdr3Hly-74" target="r4uRNz52jbwxSOdr3Hly-59">
          <mxGeometry relative="1" as="geometry" />
        </mxCell>
        <mxCell id="r4uRNz52jbwxSOdr3Hly-74" value="System" style="shape=umlActor;verticalLabelPosition=bottom;verticalAlign=top;html=1;outlineConnect=0;" vertex="1" parent="1">
          <mxGeometry x="414" y="1040" width="30" height="60" as="geometry" />
        </mxCell>
        <mxCell id="r4uRNz52jbwxSOdr3Hly-75" value="Poinformowanie banku o blokadzie" style="rounded=1;whiteSpace=wrap;html=1;fontSize=12;glass=0;strokeWidth=1;shadow=0;" vertex="1" parent="1">
          <mxGeometry x="185" y="1120" width="120" height="40" as="geometry" />
        </mxCell>
      </root>
    </mxGraphModel>
  </diagram>
</mxfile>
